{
  "accessors": [
    {
      "bufferView": 2,
      "componentType": 5126,
      "count": 52721,
      "max": [
        0.15886500477790833,
        1.1752359867095947,
        0.12204500287771225
      ],
      "min": [
        0.010532000102102757,
        0.8542900085449219,
        -0.21488800644874573
      ],
      "type": "VEC3"
    },
    {
      "bufferView": 2,
      "byteOffset": 632652,
      "componentType": 5126,
      "count": 52721,
      "max": [
        0.999681293964386,
        0.9999374151229858,
        0.9999364614486694
      ],
      "min": [
        -0.9999946355819702,
        -0.9999474287033081,
        -0.9998517036437988
      ],
      "type": "VEC3"
    },
    {
      "bufferView": 3,
      "componentType": 5126,
      "count": 52721,
      "max": [
        0.9999750852584839,
        0.9998767971992493,
        0.9999939203262329,
        1.0
      ],
      "min": [
        -0.9999730587005615,
        -0.9999709725379944,
        -0.9996069669723511,
        -1.0
      ],
      "type": "VEC4"
    },
    {
      "bufferView": 1,
      "componentType": 5126,
      "count": 52721,
      "max": [
        0.9984409809112549,
        0.999908983707428
      ],
      "min": [
        0.00016700000560376793,
        0.00016199999663513154
      ],
      "type": "VEC2"
    },
    {
      "bufferView": 0,
      "componentType": 5125,
      "count": 300000,
      "type": "SCALAR"
    }
  ],
  "asset": {
    "extras": {
      "author": "JPDV (https://sketchfab.com/JPDV)",
      "license": "CC-BY-4.0 (http://creativecommons.org/licenses/by/4.0/)",
      "source": "https://sketchfab.com/3d-models/grieving-angel-c4278b6b54f843bc9a56a1020920387c",
      "title": "Grieving Angel"
    },
    "generator": "Sketchfab-16.15.0",
    "version": "2.0"
  },
  "bufferViews": [
    {
      "buffer": 0,
      "byteLength": 1200000,
      "name": "floatBufferViews",
      "target": 34963
    },
    {
      "buffer": 0,
      "byteLength": 421768,
      "byteOffset": 1200000,
      "byteStride": 8,
      "name": "floatBufferViews",
      "target": 34962
    },
    {
      "buffer": 0,
      "byteLength": 1265304,
      "byteOffset": 1621768,
      "byteStride": 12,
      "name": "floatBufferViews",
      "target": 34962
    },
    {
      "buffer": 0,
      "byteLength": 843536,
      "byteOffset": 2887072,
      "byteStride": 16,
      "name": "floatBufferViews",
      "target": 34962
    }
  ],
  "buffers": [
    {
      "byteLength": 3730608,
      "uri": "scene.bin"
    }
  ],
  "images": [
    {
      "uri": "textures/Low_Poly_baseColor.jpeg"
    },
    {
      "uri": "textures/Low_Poly_metallicRoughness.png"
    },
    {
      "uri": "textures/Low_Poly_normal.png"
    }
  ],
  "materials": [
    {
      "doubleSided": true,
      "name": "Low_Poly",
      "normalTexture": {
        "index": 2
      },
      "occlusionTexture": {
        "index": 1
      },
      "pbrMetallicRoughness": {
        "baseColorTexture": {
          "index": 0
        },
        "metallicFactor": 0.0,
        "metallicRoughnessTexture": {
          "index": 1
        }
      }
    }
  ],
  "meshes": [
    {
      "name": "Object_0",
      "primitives": [
        {
          "attributes": {
            "NORMAL": 1,
            "POSITION": 0,
            "TANGENT": 2,
            "TEXCOORD_0": 3
          },
          "indices": 4,
          "material": 0,
          "mode": 4
        }
      ]
    }
  ],
  "nodes": [
    {
      "children": [
        1
      ],
      "matrix": [
        0.937281608581543,
        -0.06586313992738717,
        -0.34229400753974915,
        0.0,
        -0.30358371138572693,
        -0.6367923617362975,
        -0.7087541222572328,
        0.0,
        -0.17128945887088776,
        0.7682170867919923,
        -0.6168487668037412,
        0.0,
        0.0,
        0.0,
        0.0,
        1.0
      ],
      "name": "Sketchfab_model"
    },
    {
      "children": [
        2
      ],
      "name": "Low_Poly.obj.cleaner.materialmerger.gles"
    },
    {
      "mesh": 0,
      "name": "Object_2"
    }
  ],
  "samplers": [
    {
      "magFilter": 9729,
      "minFilter": 9987,
      "wrapS": 10497,
      "wrapT": 10497
    }
  ],
  "scene": 0,
  "scenes": [
    {
      "name": "Sketchfab_Scene",
      "nodes": [
        0
      ]
    }
  ],
  "textures": [
    {
      "sampler": 0,
      "source": 0
    },
    {
      "sampler": 0,
      "source": 1
    },
    {
      "sampler": 0,
      "source": 2
    }
  ]
}
