{
  "accessors": [
    {
      "bufferView": 2,
      "componentType": 5126,
      "count": 1610,
      "max": [
        136.9290008544922,
        33.54377746582031,
        209.88116455078125
      ],
      "min": [
        -90.63017272949219,
        -33.54383850097656,
        1.5889045000076294
      ],
      "type": "VEC3"
    },
    {
      "bufferView": 2,
      "byteOffset": 19320,
      "componentType": 5126,
      "count": 1610,
      "max": [
        0.9997521042823792,
        0.9998760223388672,
        0.9949986934661865
      ],
      "min": [
        -0.9994733929634094,
        -0.9998760223388672,
        -1.0
      ],
      "type": "VEC3"
    },
    {
      "bufferView": 3,
      "componentType": 5126,
      "count": 1610,
      "max": [
        0.9935129284858704,
        0.9996901154518127,
        0.8117790222167969,
        1.0
      ],
      "min": [
        -1.0,
        -0.9996901154518127,
        -0.9830033779144287,
        -1.0
      ],
      "type": "VEC4"
    },
    {
      "bufferView": 1,
      "componentType": 5126,
      "count": 1610,
      "max": [
        0.9931640625,
        0.9917068481445313
      ],
      "min": [
        0.005847930908203125,
        0.01318359375
      ],
      "type": "VEC2"
    },
    {
      "bufferView": 1,
      "byteOffset": 12880,
      "componentType": 5126,
      "count": 1610,
      "max": [
        0.9931640625,
        0.9917068481445313
      ],
      "min": [
        0.005847930908203125,
        0.01318359375
      ],
      "type": "VEC2"
    },
    {
      "bufferView": 0,
      "componentType": 5125,
      "count": 8124,
      "type": "SCALAR"
    },
    {
      "bufferView": 2,
      "byteOffset": 38640,
      "componentType": 5126,
      "count": 1146,
      "max": [
        94.06295013427734,
        344.5865783691406,
        189.4075469970703
      ],
      "min": [
        -6.181497097015381,
        -344.58697509765625,
        120.83928680419922
      ],
      "type": "VEC3"
    },
    {
      "bufferView": 2,
      "byteOffset": 52392,
      "componentType": 5126,
      "count": 1146,
      "max": [
        0.9988858699798584,
        0.9799998998641968,
        0.9919107556343079
      ],
      "min": [
        -0.9863333702087402,
        -0.9799998998641968,
        -0.9997212290763855
      ],
      "type": "VEC3"
    },
    {
      "bufferView": 3,
      "byteOffset": 25760,
      "componentType": 5126,
      "count": 1146,
      "max": [
        0.9595299959182739,
        0.9995043873786926,
        0.9437124133110046,
        1.0
      ],
      "min": [
        -0.901220977306366,
        -0.9995043873786926,
        -0.9884558320045471,
        -1.0
      ],
      "type": "VEC4"
    },
    {
      "bufferView": 1,
      "byteOffset": 25760,
      "componentType": 5126,
      "count": 1146,
      "max": [
        0.9951171875,
        0.8094482421875
      ],
      "min": [
        0.007053375244140625,
        0.01611328125
      ],
      "type": "VEC2"
    },
    {
      "bufferView": 1,
      "byteOffset": 34928,
      "componentType": 5126,
      "count": 1146,
      "max": [
        0.9951171875,
        0.8094482421875
      ],
      "min": [
        0.007053375244140625,
        0.01611328125
      ],
      "type": "VEC2"
    },
    {
      "bufferView": 0,
      "byteOffset": 32496,
      "componentType": 5125,
      "count": 5352,
      "type": "SCALAR"
    },
    {
      "bufferView": 2,
      "byteOffset": 66144,
      "componentType": 5126,
      "count": 2630,
      "max": [
        123.70623016357422,
        8.66968822479248,
        205.77001953125
      ],
      "min": [
        -109.44849395751953,
        -28.155563354492188,
        68.55651092529297
      ],
      "type": "VEC3"
    },
    {
      "bufferView": 2,
      "byteOffset": 97704,
      "componentType": 5126,
      "count": 2630,
      "max": [
        0.9991949796676636,
        0.9994733929634094,
        0.999225914478302
      ],
      "min": [
        -0.9957130551338196,
        -0.9998451471328735,
        -0.8596546053886414
      ],
      "type": "VEC3"
    },
    {
      "bufferView": 1,
      "byteOffset": 44096,
      "componentType": 5126,
      "count": 2630,
      "max": [
        0.7314453125,
        0.9892654418945313
      ],
      "min": [
        0.341796875,
        -0.0009765625
      ],
      "type": "VEC2"
    },
    {
      "bufferView": 0,
      "byteOffset": 53904,
      "componentType": 5125,
      "count": 7728,
      "type": "SCALAR"
    },
    {
      "bufferView": 2,
      "byteOffset": 129264,
      "componentType": 5126,
      "count": 3471,
      "max": [
        137.15216064453125,
        40.133541107177734,
        205.5370330810547
      ],
      "min": [
        -85.58696746826172,
        -40.13383865356445,
        -0.00017067384032998234
      ],
      "type": "VEC3"
    },
    {
      "bufferView": 2,
      "byteOffset": 170916,
      "componentType": 5126,
      "count": 3471,
      "max": [
        0.9999690055847168,
        0.9999690055847168,
        1.0
      ],
      "min": [
        -1.0,
        -0.9995972514152527,
        -1.0
      ],
      "type": "VEC3"
    },
    {
      "bufferView": 3,
      "byteOffset": 44096,
      "componentType": 5126,
      "count": 3471,
      "max": [
        1.0,
        1.0,
        0.9999690055847168,
        1.0
      ],
      "min": [
        -1.0,
        -1.0,
        -1.0,
        -1.0
      ],
      "type": "VEC4"
    },
    {
      "bufferView": 1,
      "byteOffset": 65136,
      "componentType": 5126,
      "count": 3471,
      "max": [
        0.99609375,
        0.9923248291015625
      ],
      "min": [
        0.006084442138671875,
        0.00390625
      ],
      "type": "VEC2"
    },
    {
      "bufferView": 1,
      "byteOffset": 92904,
      "componentType": 5126,
      "count": 3471,
      "max": [
        0.99609375,
        0.9923248291015625
      ],
      "min": [
        0.006084442138671875,
        0.00390625
      ],
      "type": "VEC2"
    },
    {
      "bufferView": 0,
      "byteOffset": 84816,
      "componentType": 5125,
      "count": 10974,
      "type": "SCALAR"
    }
  ],
  "asset": {
    "extras": {
      "author": "bar00d (https://sketchfab.com/bar00d)",
      "license": "CC-BY-4.0 (http://creativecommons.org/licenses/by/4.0/)",
      "source": "https://sketchfab.com/3d-models/pegasus-3d-model-41b27073f94b424fad7452027084c8de",
      "title": "PEGASUS 3D MODEL"
    },
    "generator": "Sketchfab-16.16.0",
    "version": "2.0"
  },
  "bufferViews": [
    {
      "buffer": 0,
      "byteLength": 128712,
      "name": "floatBufferViews",
      "target": 34963
    },
    {
      "buffer": 0,
      "byteLength": 120672,
      "byteOffset": 128712,
      "byteStride": 8,
      "name": "floatBufferViews",
      "target": 34962
    },
    {
      "buffer": 0,
      "byteLength": 212568,
      "byteOffset": 249384,
      "byteStride": 12,
      "name": "floatBufferViews",
      "target": 34962
    },
    {
      "buffer": 0,
      "byteLength": 99632,
      "byteOffset": 461952,
      "byteStride": 16,
      "name": "floatBufferViews",
      "target": 34962
    }
  ],
  "buffers": [
    {
      "byteLength": 561584,
      "uri": "scene.bin"
    }
  ],
  "images": [
    {
      "uri": "textures/body_Mat_baseColor.png"
    },
    {
      "uri": "textures/body_Mat_normal.png"
    },
    {
      "uri": "textures/feathers_Mat_baseColor.png"
    },
    {
      "uri": "textures/feathers_Mat_normal.png"
    },
    {
      "uri": "textures/harness_Mat_baseColor.png"
    },
    {
      "uri": "textures/harness_Mat_normal.png"
    }
  ],
  "materials": [
    {
      "doubleSided": true,
      "name": "body_Mat",
      "normalTexture": {
        "index": 1
      },
      "pbrMetallicRoughness": {
        "baseColorTexture": {
          "index": 0
        },
        "metallicFactor": 0.0,
        "roughnessFactor": 0.29104850605258986
      }
    },
    {
      "doubleSided": true,
      "name": "feathers_Mat",
      "normalTexture": {
        "index": 3
      },
      "pbrMetallicRoughness": {
        "baseColorTexture": {
          "index": 2
        },
        "metallicFactor": 0.0,
        "roughnessFactor": 0.44952517950530896
      }
    },
    {
      "doubleSided": true,
      "name": "HAIRS",
      "pbrMetallicRoughness": {
        "baseColorFactor": [
          0.8,
          0.8,
          0.8,
          1.0
        ],
        "roughnessFactor": 0.29104850605258986
      }
    },
    {
      "doubleSided": true,
      "name": "harness_Mat",
      "normalTexture": {
        "index": 5
      },
      "pbrMetallicRoughness": {
        "baseColorTexture": {
          "index": 4
        },
        "roughnessFactor": 0.2
      }
    }
  ],
  "meshes": [
    {
      "name": "PEGASUS_D2784361_body_Mat_0",
      "primitives": [
        {
          "attributes": {
            "NORMAL": 1,
            "POSITION": 0,
            "TANGENT": 2,
            "TEXCOORD_0": 3,
            "TEXCOORD_1": 4
          },
          "indices": 5,
          "material": 0,
          "mode": 4
        }
      ]
    },
    {
      "name": "PEGASUS_D2784361_feathers_Mat_0",
      "primitives": [
        {
          "attributes": {
            "NORMAL": 7,
            "POSITION": 6,
            "TANGENT": 8,
            "TEXCOORD_0": 9,
            "TEXCOORD_1": 10
          },
          "indices": 11,
          "material": 1,
          "mode": 4
        }
      ]
    },
    {
      "name": "PEGASUS_D2784361_HAIRS_0",
      "primitives": [
        {
          "attributes": {
            "NORMAL": 13,
            "POSITION": 12,
            "TEXCOORD_0": 14
          },
          "indices": 15,
          "material": 2,
          "mode": 4
        }
      ]
    },
    {
      "name": "PEGASUS_D2784361_harness_Mat_0",
      "primitives": [
        {
          "attributes": {
            "NORMAL": 17,
            "POSITION": 16,
            "TANGENT": 18,
            "TEXCOORD_0": 19,
            "TEXCOORD_1": 20
          },
          "indices": 21,
          "material": 3,
          "mode": 4
        }
      ]
    }
  ],
  "nodes": [
    {
      "children": [
        1
      ],
      "matrix": [
        1.0,
        0.0,
        0.0,
        0.0,
        0.0,
        -5.053215392444312e-16,
        1.0,
        0.0,
        0.0,
        -1.0,
        -5.053215392444312e-16,
        0.0,
        0.0,
        0.0,
        0.0,
        1.0
      ],
      "name": "Sketchfab_model"
    },
    {
      "children": [
        2
      ],
      "matrix": [
        0.009999999776482582,
        0.0,
        0.0,
        0.0,
        0.0,
        -0.009999999776482582,
        0.0,
        0.0,
        0.0,
        0.0,
        -0.009999999776482582,
        0.0,
        0.0,
        0.0,
        0.0,
        1.0
      ],
      "name": "PEGASUS.FBX"
    },
    {
      "children": [
        3
      ],
      "name": "RootNode"
    },
    {
      "children": [
        4,
        5,
        6,
        7
      ],
      "name": "PEGASUS_D2784361"
    },
    {
      "mesh": 0,
      "name": "PEGASUS_D2784361_body_Mat_0"
    },
    {
      "mesh": 1,
      "name": "PEGASUS_D2784361_feathers_Mat_0"
    },
    {
      "mesh": 2,
      "name": "PEGASUS_D2784361_HAIRS_0"
    },
    {
      "mesh": 3,
      "name": "PEGASUS_D2784361_harness_Mat_0"
    }
  ],
  "samplers": [
    {
      "magFilter": 9729,
      "minFilter": 9987,
      "wrapS": 10497,
      "wrapT": 10497
    }
  ],
  "scene": 0,
  "scenes": [
    {
      "name": "Sketchfab_Scene",
      "nodes": [
        0
      ]
    }
  ],
  "textures": [
    {
      "sampler": 0,
      "source": 0
    },
    {
      "sampler": 0,
      "source": 1
    },
    {
      "sampler": 0,
      "source": 2
    },
    {
      "sampler": 0,
      "source": 3
    },
    {
      "sampler": 0,
      "source": 4
    },
    {
      "sampler": 0,
      "source": 5
    }
  ]
}
